<svg width="269" height="260" viewBox="0 0 269 260" fill="none" xmlns="http://www.w3.org/2000/svg">
<path d="M38.4189 248.745C39.5572 248.097 40.7569 247.282 42.0068 246.26C42.0068 246.26 37.0629 243.351 30.1493 247.131C25.5291 249.661 29.2788 251.057 31.5443 250.973C32.9226 250.917 34.8756 250.515 37.1689 249.404C37.1689 249.404 40.5281 250.8 40.0873 254.642L34.7695 258.042C34.7695 258.042 30.1493 260.399 24.9153 258.042C19.6812 255.686 16.7182 253.156 18.9837 245.651C21.2492 238.146 34.8532 236.404 37.8162 236.577C40.7792 236.75 51.504 238.671 54.3832 237.013L64.8457 231.077C64.8457 231.077 59.7177 224.253 64.1482 219.557C65.7832 217.821 74.4266 214.537 76.1787 213.711C77.663 213.013 78.6228 214.934 78.6228 214.934C78.6228 214.934 115.847 204.508 143.524 186.573C167.936 170.753 201.879 150.874 201.879 150.874C209.318 145.056 217.33 140.399 223.965 133.19C223.965 133.19 211.248 112.618 180.257 115.74C138.636 119.928 114.675 148.641 71.6812 171.116C61.4531 176.466 34.8309 180.307 14.7206 168.559C0.770591 160.412 2.62873 156.224 0.770591 146.452C0.770591 146.452 -1.55627 130.632 5.88745 117.37C13.3312 104.108 34.2506 94.7996 57.5025 84.1006C80.7543 73.4017 96.3281 63.6241 109.815 59.9052C123.302 56.1862 124.697 57.3533 133.993 50.4738C133.993 50.4738 158.406 0.915802 211.767 0.915802C265.129 0.915802 266.384 18.6115 267.567 21.8558C269.213 26.39 265.815 41.048 264.42 43.84C263.025 46.632 251.592 79.5553 192.923 80.4878C181.066 80.6777 150.024 75.6018 144.796 74.552C139.568 73.5022 134.333 72.8042 128.056 74.2002C121.778 75.5962 41.9175 108.408 31.455 114.338C20.9925 120.268 -14.234 134.58 22.3875 152.728C59.0091 170.876 97.3716 134.926 105.044 131.788C112.717 128.65 158.182 86.6525 199.207 98.284C210.071 101.366 228.981 106.956 230.248 119.922C231.643 134.234 228.853 144.352 228.853 144.352C228.853 144.352 225.444 163.913 187.349 187.628C148.116 212.058 100.508 231.954 97.7175 233.696C97.7175 233.696 97.9798 236.577 97.4553 237.973L87.428 242.597C87.428 242.597 83.7675 243.993 78.885 242.597C74.0025 241.201 72.083 237.711 72.083 237.711L58.306 245.914C58.306 245.914 58.8305 250.364 55.1644 251.498C51.4984 252.631 50.9794 250.973 50.4549 250.012C50.4549 250.012 48.3624 250.275 47.3134 249.314L41.0359 254.111C41.047 254.111 40.8573 249.527 38.4189 248.745ZM210.049 55.8233C242.312 54.9354 255.347 35.8772 255.347 35.8772C255.347 35.8772 251.346 20.7167 215.232 20.1248C170.509 19.3933 151.14 51.6744 151.14 51.6744C172.155 53.4445 177.785 56.7111 210.049 55.8233Z" fill="#B3E5FC"/>
</svg>
